<?xml version="1.0" encoding="UTF-8" standalone="no"?>
<!-- Created with Inkscape (http://www.inkscape.org/) -->

<svg
   xmlns:dc="http://purl.org/dc/elements/1.1/"
   xmlns:cc="http://creativecommons.org/ns#"
   xmlns:rdf="http://www.w3.org/1999/02/22-rdf-syntax-ns#"
   xmlns:svg="http://www.w3.org/2000/svg"
   xmlns="http://www.w3.org/2000/svg"
   xmlns:sodipodi="http://sodipodi.sourceforge.net/DTD/sodipodi-0.dtd"
   xmlns:inkscape="http://www.inkscape.org/namespaces/inkscape"
   id="svg4164"
   version="1.1"
   inkscape:version="0.91 r13725"
   xml:space="preserve"
   width="369.85001"
   height="417.58749"
   viewBox="0 0 369.85001 417.58749"
   sodipodi:docname="drupal 8 logo isolated.svg"><metadata
     id="metadata4170"><rdf:RDF><cc:Work
         rdf:about=""><dc:format>image/svg+xml</dc:format><dc:type
           rdf:resource="http://purl.org/dc/dcmitype/StillImage" /><dc:title></dc:title></cc:Work></rdf:RDF></metadata><defs
     id="defs4168" /><sodipodi:namedview
     pagecolor="#ffffff"
     bordercolor="#666666"
     borderopacity="1"
     objecttolerance="10"
     gridtolerance="10"
     guidetolerance="10"
     inkscape:pageopacity="0"
     inkscape:pageshadow="2"
     inkscape:window-width="1366"
     inkscape:window-height="744"
     id="namedview4166"
     showgrid="false"
     inkscape:zoom="0.56515102"
     inkscape:cx="360.98414"
     inkscape:cy="208.79375"
     inkscape:window-x="0"
     inkscape:window-y="24"
     inkscape:window-maximized="1"
     inkscape:current-layer="g4174" /><g
     id="g4172"
     inkscape:groupmode="layer"
     inkscape:label="ink_ext_XXXXXX"
     transform="matrix(1.25,0,0,-1.25,0,417.5875)"><g
       id="g4174"
       transform="scale(0.1,0.1)"><path
         d="m 1392.16,1272.33 c -291.26,0 -527.316,-236.06 -527.316,-527.24 0,-291.168 236.056,-527.27 527.316,-527.27 291.11,0 527.17,236.102 527.17,527.27 0,291.18 -236.06,527.24 -527.17,527.24"
         style="fill:#51abe4;fill-opacity:1;fill-rule:nonzero;stroke:none"
         id="path4176"
         inkscape:connector-curvature="0" /><path
         d="m 2047.76,1372.91 c 156.22,-163.14 252.38,-384.16 252.38,-627.82 0,-308.57 -154.1,-581.039 -389.34,-745.09 434.82,134.16 794.6,460.988 955.66,856.879 222.7,547.601 15.35,959.811 -332.78,1333.501 10.59,-48.38 16.55,-98.53 16.55,-150.07 0,-316.92 -212.5,-584.09 -502.47,-667.4"
         style="fill:#51abe4;fill-opacity:1;fill-rule:nonzero;stroke:none"
         id="path4178"
         inkscape:connector-curvature="0" /><path
         d="m 1452.34,2040.31 c 0,-222.75 180.64,-403.31 403.37,-403.31 222.72,0 403.27,180.56 403.27,403.31 0,222.7 -180.55,403.25 -403.27,403.25 -222.73,0 -403.37,-180.55 -403.37,-403.25"
         style="fill:#51abe4;fill-opacity:1;fill-rule:nonzero;stroke:none"
         id="path4180"
         inkscape:connector-curvature="0" /><path
         d="M 697.574,160.379 C 564.375,318.391 484.117,522.289 484.117,745.09 c 0,464.79 349.324,847.74 799.673,901.29 -77.28,111.98 -122.66,247.66 -122.66,393.93 0,383.52 310.92,694.48 694.58,694.48 31.67,0 62.79,-2.34 93.27,-6.44 -227.21,196.09 -453.92,394.95 -632.87,612.4 C 1407.51,2388.58 448.91,2734.56 94.5469,1857.14 -143.258,1268.43 71.0781,540.691 697.574,160.379"
         style="fill:#51abe4;fill-opacity:1;fill-rule:nonzero;stroke:none"
         id="path4182"
         inkscape:connector-curvature="0" /></g></g></svg>